  0
SECTION
  2
BLOCKS
  0
ENDSEC
  0
SECTION
  2
ENTITIES
  0
LINE
  8
0
 10
-83.5
 11
-83.5
 20
-10
 21
10
  0
LINE
  8
0
 10
-83.5
 11
-81.15
 20
10
 21
10
  0
LINE
  8
0
 10
-81.15
 11
-81.15
 20
10
 21
8
  0
LINE
  8
0
 10
-81.15
 11
-69.15
 20
8
 21
8
  0
LINE
  8
0
 10
-69.15
 11
-69.15
 20
8
 21
10
  0
LINE
  8
0
 10
-69.15
 11
-64.45
 20
10
 21
10
  0
LINE
  8
0
 10
-64.45
 11
-64.45
 20
10
 21
8
  0
LINE
  8
0
 10
-64.45
 11
-52.45
 20
8
 21
8
  0
LINE
  8
0
 10
-52.45
 11
-52.45
 20
8
 21
10
  0
LINE
  8
0
 10
-52.45
 11
-47.75
 20
10
 21
10
  0
LINE
  8
0
 10
-47.75
 11
-47.75
 20
10
 21
8
  0
LINE
  8
0
 10
-47.75
 11
-35.75
 20
8
 21
8
  0
LINE
  8
0
 10
-35.75
 11
-35.75
 20
8
 21
10
  0
LINE
  8
0
 10
-35.75
 11
-31.05
 20
10
 21
10
  0
LINE
  8
0
 10
-31.05
 11
-31.05
 20
10
 21
8
  0
LINE
  8
0
 10
-31.05
 11
-19.05
 20
8
 21
8
  0
LINE
  8
0
 10
-19.05
 11
-19.05
 20
8
 21
10
  0
LINE
  8
0
 10
-19.05
 11
-14.35
 20
10
 21
10
  0
LINE
  8
0
 10
-14.35
 11
-14.35
 20
10
 21
8
  0
LINE
  8
0
 10
-14.35
 11
-2.35
 20
8
 21
8
  0
LINE
  8
0
 10
-2.35
 11
-2.35
 20
8
 21
10
  0
LINE
  8
0
 10
-2.35
 11
2.35
 20
10
 21
10
  0
LINE
  8
0
 10
2.35
 11
2.35
 20
10
 21
8
  0
LINE
  8
0
 10
2.35
 11
14.35
 20
8
 21
8
  0
LINE
  8
0
 10
14.35
 11
14.35
 20
8
 21
10
  0
LINE
  8
0
 10
14.35
 11
19.05
 20
10
 21
10
  0
LINE
  8
0
 10
19.05
 11
19.05
 20
10
 21
8
  0
LINE
  8
0
 10
19.05
 11
31.05
 20
8
 21
8
  0
LINE
  8
0
 10
31.05
 11
31.05
 20
8
 21
10
  0
LINE
  8
0
 10
31.05
 11
35.75
 20
10
 21
10
  0
LINE
  8
0
 10
35.75
 11
35.75
 20
10
 21
8
  0
LINE
  8
0
 10
35.75
 11
47.75
 20
8
 21
8
  0
LINE
  8
0
 10
47.75
 11
47.75
 20
8
 21
10
  0
LINE
  8
0
 10
47.75
 11
52.45
 20
10
 21
10
  0
LINE
  8
0
 10
52.45
 11
52.45
 20
10
 21
8
  0
LINE
  8
0
 10
52.45
 11
64.45
 20
8
 21
8
  0
LINE
  8
0
 10
64.45
 11
64.45
 20
8
 21
10
  0
LINE
  8
0
 10
64.45
 11
69.15
 20
10
 21
10
  0
LINE
  8
0
 10
69.15
 11
69.15
 20
10
 21
8
  0
LINE
  8
0
 10
69.15
 11
81.15
 20
8
 21
8
  0
LINE
  8
0
 10
81.15
 11
81.15
 20
8
 21
10
  0
LINE
  8
0
 10
81.15
 11
83.5
 20
10
 21
10
  0
LINE
  8
0
 10
83.5
 11
83.5
 20
10
 21
-10
  0
LINE
  8
0
 10
83.5
 11
-83.5
 20
-10
 21
-10
  0
ENDSEC
  0
SECTION
  2
OBJECTS
  0
DICTIONARY
  0
ENDSEC
  0
EOF
