  0
SECTION
  2
BLOCKS
  0
ENDSEC
  0
SECTION
  2
ENTITIES
  0
LINE
  8
0
 10
0
 11
0
 20
13.016
 21
23.031
  0
LINE
  8
0
 10
0
 11
3
 20
23.031
 21
23.031
  0
LINE
  8
0
 10
3
 11
3
 20
23.031
 21
33.047
  0
LINE
  8
0
 10
3
 11
0
 20
33.047
 21
33.047
  0
LINE
  8
0
 10
0
 11
0
 20
33.047
 21
43.062
  0
LINE
  8
0
 10
0
 11
3
 20
43.062
 21
43.062
  0
LINE
  8
0
 10
3
 11
3
 20
43.062
 21
53.078
  0
LINE
  8
0
 10
3
 11
0
 20
53.078
 21
53.078
  0
LINE
  8
0
 10
0
 11
0
 20
53.078
 21
63.093
  0
LINE
  8
0
 10
0
 11
3
 20
63.093
 21
63.093
  0
LINE
  8
0
 10
3
 11
3
 20
63.093
 21
73.109
  0
LINE
  8
0
 10
3
 11
0
 20
73.109
 21
73.109
  0
LINE
  8
0
 10
0
 11
0
 20
73.109
 21
83.124
  0
LINE
  8
0
 10
0
 11
3
 20
83.124
 21
83.124
  0
LINE
  8
0
 10
3
 11
3
 20
83.124
 21
93.14
  0
LINE
  8
0
 10
3
 11
0
 20
93.14
 21
93.14
  0
LINE
  8
0
 10
0
 11
0
 20
93.14
 21
103.155
  0
LINE
  8
0
 10
0
 11
3
 20
103.155
 21
103.155
  0
LINE
  8
0
 10
3
 11
3
 20
103.155
 21
113.171
  0
LINE
  8
0
 10
3
 11
0
 20
113.171
 21
113.171
  0
LINE
  8
0
 10
0
 11
0
 20
113.171
 21
123.186
  0
LINE
  8
0
 10
0
 11
3
 20
123.186
 21
123.186
  0
LINE
  8
0
 10
3
 11
3
 20
123.186
 21
133.202
  0
LINE
  8
0
 10
3
 11
0
 20
133.202
 21
133.202
  0
LINE
  8
0
 10
0
 11
0
 20
133.202
 21
143.217
  0
LINE
  8
0
 10
0
 11
3
 20
143.217
 21
143.217
  0
LINE
  8
0
 10
3
 11
3
 20
143.217
 21
153.233
  0
LINE
  8
0
 10
3
 11
0
 20
153.233
 21
153.233
  0
LINE
  8
0
 10
0
 11
0
 20
153.233
 21
163.248
  0
LINE
  8
0
 10
0
 11
3
 20
163.248
 21
163.248
  0
LINE
  8
0
 10
3
 11
3
 20
163.248
 21
173.264
  0
LINE
  8
0
 10
3
 11
0
 20
173.264
 21
173.264
  0
LINE
  8
0
 10
0
 11
0
 20
173.264
 21
183.28
  0
LINE
  8
0
 10
0
 11
3
 20
183.28
 21
183.28
  0
LINE
  8
0
 10
3
 11
3
 20
183.28
 21
193.296
  0
LINE
  8
0
 10
3
 11
0
 20
193.296
 21
193.296
  0
LINE
  8
0
 10
0
 11
0
 20
193.296
 21
203.311
  0
LINE
  8
0
 10
0
 11
3
 20
203.311
 21
203.311
  0
LINE
  8
0
 10
3
 11
3
 20
203.311
 21
213.327
  0
LINE
  8
0
 10
3
 11
0
 20
213.327
 21
213.327
  0
LINE
  8
0
 10
0
 11
0
 20
213.327
 21
223.342
  0
LINE
  8
0
 10
0
 11
3
 20
223.342
 21
223.342
  0
LINE
  8
0
 10
3
 11
3
 20
223.342
 21
233.358
  0
LINE
  8
0
 10
3
 11
0
 20
233.358
 21
233.358
  0
LINE
  8
0
 10
0
 11
0
 20
233.358
 21
243.373
  0
LINE
  8
0
 10
0
 11
3
 20
243.373
 21
243.373
  0
LINE
  8
0
 10
3
 11
3
 20
243.373
 21
253.389
  0
LINE
  8
0
 10
3
 11
0
 20
253.389
 21
253.389
  0
LINE
  8
0
 10
0
 11
0
 20
253.389
 21
263.404
  0
LINE
  8
0
 10
0
 11
3
 20
263.404
 21
263.404
  0
LINE
  8
0
 10
3
 11
3
 20
263.404
 21
273.42
  0
LINE
  8
0
 10
3
 11
0
 20
273.42
 21
273.42
  0
LINE
  8
0
 10
0
 11
0
 20
273.42
 21
283.435
  0
LINE
  8
0
 10
0
 11
3
 20
283.435
 21
283.435
  0
LINE
  8
0
 10
3
 11
3
 20
283.435
 21
293.451
  0
LINE
  8
0
 10
3
 11
0
 20
293.451
 21
293.451
  0
LINE
  8
0
 10
0
 11
0
 20
293.451
 21
303.466
  0
LINE
  8
0
 10
0
 11
3
 20
303.466
 21
303.466
  0
LINE
  8
0
 10
3
 11
3
 20
303.466
 21
313.482
  0
LINE
  8
0
 10
3
 11
0
 20
313.482
 21
313.482
  0
LINE
  8
0
 10
0
 11
0
 20
313.482
 21
323.497
  0
LINE
  8
0
 10
0
 11
3
 20
323.497
 21
323.497
  0
LINE
  8
0
 10
3
 11
3
 20
323.497
 21
333.513
  0
LINE
  8
0
 10
3
 11
0
 20
333.513
 21
333.513
  0
LINE
  8
0
 10
0
 11
0
 20
333.513
 21
343.528
  0
LINE
  8
0
 10
0
 11
3
 20
343.528
 21
343.528
  0
LINE
  8
0
 10
3
 11
3
 20
343.528
 21
353.544
  0
LINE
  8
0
 10
3
 11
0
 20
353.544
 21
353.544
  0
LINE
  8
0
 10
0
 11
0
 20
353.544
 21
363.56
  0
LINE
  8
0
 10
0
 11
3
 20
363.56
 21
363.56
  0
LINE
  8
0
 10
3
 11
3
 20
363.56
 21
373.576
  0
LINE
  8
0
 10
3
 11
0
 20
373.576
 21
373.576
  0
LINE
  8
0
 10
0
 11
0
 20
373.576
 21
383.591
  0
LINE
  8
0
 10
0
 11
3
 20
383.591
 21
383.591
  0
LINE
  8
0
 10
3
 11
3
 20
383.591
 21
393.607
  0
LINE
  8
0
 10
3
 11
0
 20
393.607
 21
393.607
  0
LINE
  8
0
 10
0
 11
0
 20
393.607
 21
403.622
  0
LINE
  8
0
 10
0
 11
3
 20
403.622
 21
403.622
  0
LINE
  8
0
 10
3
 11
3
 20
403.622
 21
413.638
  0
LINE
  8
0
 10
3
 11
0
 20
413.638
 21
413.638
  0
LINE
  8
0
 10
0
 11
0
 20
413.638
 21
423.653
  0
LINE
  8
0
 10
0
 11
3
 20
423.653
 21
423.653
  0
LINE
  8
0
 10
3
 11
3
 20
423.653
 21
433.669
  0
LINE
  8
0
 10
3
 11
0
 20
433.669
 21
433.669
  0
LINE
  8
0
 10
0
 11
0
 20
433.669
 21
443.684
  0
LINE
  8
0
 10
0
 11
3
 20
443.684
 21
443.684
  0
LINE
  8
0
 10
3
 11
3
 20
443.684
 21
456.7
  0
LINE
  8
0
 10
3
 11
9.666
 20
456.7
 21
456.7
  0
LINE
  8
0
 10
9.666
 11
9.666
 20
456.7
 21
453.7
  0
LINE
  8
0
 10
9.666
 11
16.333
 20
453.7
 21
453.7
  0
LINE
  8
0
 10
16.333
 11
16.333
 20
453.7
 21
456.7
  0
LINE
  8
0
 10
16.333
 11
23
 20
456.7
 21
456.7
  0
LINE
  8
0
 10
23
 11
23
 20
456.7
 21
443.684
  0
LINE
  8
0
 10
23
 11
26
 20
443.684
 21
443.684
  0
LINE
  8
0
 10
26
 11
26
 20
443.684
 21
433.669
  0
LINE
  8
0
 10
26
 11
23
 20
433.669
 21
433.669
  0
LINE
  8
0
 10
23
 11
23
 20
433.669
 21
423.653
  0
LINE
  8
0
 10
23
 11
26
 20
423.653
 21
423.653
  0
LINE
  8
0
 10
26
 11
26
 20
423.653
 21
413.638
  0
LINE
  8
0
 10
26
 11
23
 20
413.638
 21
413.638
  0
LINE
  8
0
 10
23
 11
23
 20
413.638
 21
403.622
  0
LINE
  8
0
 10
23
 11
26
 20
403.622
 21
403.622
  0
LINE
  8
0
 10
26
 11
26
 20
403.622
 21
393.607
  0
LINE
  8
0
 10
26
 11
23
 20
393.607
 21
393.607
  0
LINE
  8
0
 10
23
 11
23
 20
393.607
 21
383.591
  0
LINE
  8
0
 10
23
 11
26
 20
383.591
 21
383.591
  0
LINE
  8
0
 10
26
 11
26
 20
383.591
 21
373.576
  0
LINE
  8
0
 10
26
 11
23
 20
373.576
 21
373.576
  0
LINE
  8
0
 10
23
 11
23
 20
373.576
 21
363.56
  0
LINE
  8
0
 10
23
 11
26
 20
363.56
 21
363.56
  0
LINE
  8
0
 10
26
 11
26
 20
363.56
 21
353.545
  0
LINE
  8
0
 10
26
 11
23
 20
353.545
 21
353.545
  0
LINE
  8
0
 10
23
 11
23
 20
353.545
 21
343.529
  0
LINE
  8
0
 10
23
 11
26
 20
343.529
 21
343.529
  0
LINE
  8
0
 10
26
 11
26
 20
343.529
 21
333.514
  0
LINE
  8
0
 10
26
 11
23
 20
333.514
 21
333.514
  0
LINE
  8
0
 10
23
 11
23
 20
333.514
 21
323.498
  0
LINE
  8
0
 10
23
 11
26
 20
323.498
 21
323.498
  0
LINE
  8
0
 10
26
 11
26
 20
323.498
 21
313.483
  0
LINE
  8
0
 10
26
 11
23
 20
313.483
 21
313.483
  0
LINE
  8
0
 10
23
 11
23
 20
313.483
 21
303.467
  0
LINE
  8
0
 10
23
 11
26
 20
303.467
 21
303.467
  0
LINE
  8
0
 10
26
 11
26
 20
303.467
 21
293.452
  0
LINE
  8
0
 10
26
 11
23
 20
293.452
 21
293.452
  0
LINE
  8
0
 10
23
 11
23
 20
293.452
 21
283.436
  0
LINE
  8
0
 10
23
 11
26
 20
283.436
 21
283.436
  0
LINE
  8
0
 10
26
 11
26
 20
283.436
 21
273.42
  0
LINE
  8
0
 10
26
 11
23
 20
273.42
 21
273.42
  0
LINE
  8
0
 10
23
 11
23
 20
273.42
 21
263.404
  0
LINE
  8
0
 10
23
 11
26
 20
263.404
 21
263.404
  0
LINE
  8
0
 10
26
 11
26
 20
263.404
 21
253.389
  0
LINE
  8
0
 10
26
 11
23
 20
253.389
 21
253.389
  0
LINE
  8
0
 10
23
 11
23
 20
253.389
 21
243.373
  0
LINE
  8
0
 10
23
 11
26
 20
243.373
 21
243.373
  0
LINE
  8
0
 10
26
 11
26
 20
243.373
 21
233.358
  0
LINE
  8
0
 10
26
 11
23
 20
233.358
 21
233.358
  0
LINE
  8
0
 10
23
 11
23
 20
233.358
 21
223.342
  0
LINE
  8
0
 10
23
 11
26
 20
223.342
 21
223.342
  0
LINE
  8
0
 10
26
 11
26
 20
223.342
 21
213.327
  0
LINE
  8
0
 10
26
 11
23
 20
213.327
 21
213.327
  0
LINE
  8
0
 10
23
 11
23
 20
213.327
 21
203.311
  0
LINE
  8
0
 10
23
 11
26
 20
203.311
 21
203.311
  0
LINE
  8
0
 10
26
 11
26
 20
203.311
 21
193.296
  0
LINE
  8
0
 10
26
 11
23
 20
193.296
 21
193.296
  0
LINE
  8
0
 10
23
 11
23
 20
193.296
 21
183.28
  0
LINE
  8
0
 10
23
 11
26
 20
183.28
 21
183.28
  0
LINE
  8
0
 10
26
 11
26
 20
183.28
 21
173.265
  0
LINE
  8
0
 10
26
 11
23
 20
173.265
 21
173.265
  0
LINE
  8
0
 10
23
 11
23
 20
173.265
 21
163.249
  0
LINE
  8
0
 10
23
 11
26
 20
163.249
 21
163.249
  0
LINE
  8
0
 10
26
 11
26
 20
163.249
 21
153.234
  0
LINE
  8
0
 10
26
 11
23
 20
153.234
 21
153.234
  0
LINE
  8
0
 10
23
 11
23
 20
153.234
 21
143.218
  0
LINE
  8
0
 10
23
 11
26
 20
143.218
 21
143.218
  0
LINE
  8
0
 10
26
 11
26
 20
143.218
 21
133.203
  0
LINE
  8
0
 10
26
 11
23
 20
133.203
 21
133.203
  0
LINE
  8
0
 10
23
 11
23
 20
133.203
 21
123.187
  0
LINE
  8
0
 10
23
 11
26
 20
123.187
 21
123.187
  0
LINE
  8
0
 10
26
 11
26
 20
123.187
 21
113.172
  0
LINE
  8
0
 10
26
 11
23
 20
113.172
 21
113.172
  0
LINE
  8
0
 10
23
 11
23
 20
113.172
 21
103.156
  0
LINE
  8
0
 10
23
 11
26
 20
103.156
 21
103.156
  0
LINE
  8
0
 10
26
 11
26
 20
103.156
 21
93.14
  0
LINE
  8
0
 10
26
 11
23
 20
93.14
 21
93.14
  0
LINE
  8
0
 10
23
 11
23
 20
93.14
 21
83.124
  0
LINE
  8
0
 10
23
 11
26
 20
83.124
 21
83.124
  0
LINE
  8
0
 10
26
 11
26
 20
83.124
 21
73.109
  0
LINE
  8
0
 10
26
 11
23
 20
73.109
 21
73.109
  0
LINE
  8
0
 10
23
 11
23
 20
73.109
 21
63.093
  0
LINE
  8
0
 10
23
 11
26
 20
63.093
 21
63.093
  0
LINE
  8
0
 10
26
 11
26
 20
63.093
 21
53.078
  0
LINE
  8
0
 10
26
 11
23
 20
53.078
 21
53.078
  0
LINE
  8
0
 10
23
 11
23
 20
53.078
 21
43.062
  0
LINE
  8
0
 10
23
 11
26
 20
43.062
 21
43.062
  0
LINE
  8
0
 10
26
 11
26
 20
43.062
 21
33.047
  0
LINE
  8
0
 10
26
 11
23
 20
33.047
 21
33.047
  0
LINE
  8
0
 10
23
 11
23
 20
33.047
 21
23.031
  0
LINE
  8
0
 10
23
 11
26
 20
23.031
 21
23.031
  0
LINE
  8
0
 10
26
 11
26
 20
23.031
 21
13.016
  0
LINE
  8
0
 10
26
 11
23
 20
13.016
 21
13.016
  0
LINE
  8
0
 10
23
 11
23
 20
13.016
 21
0
  0
LINE
  8
0
 10
23
 11
16.334
 20
0
 21
0
  0
LINE
  8
0
 10
16.334
 11
16.334
 20
0
 21
3
  0
LINE
  8
0
 10
16.334
 11
9.667
 20
3
 21
3
  0
LINE
  8
0
 10
9.667
 11
9.667
 20
3
 21
0
  0
LINE
  8
0
 10
9.667
 11
3
 20
0
 21
0
  0
LINE
  8
0
 10
3
 11
3
 20
0
 21
13.016
  0
LINE
  8
0
 10
3
 11
0
 20
13.016
 21
13.016
  0
LINE
  8
0
 10
7.5
 11
7.5
 20
20.5
 21
39.5
  0
LINE
  8
0
 10
7.5
 11
18.5
 20
39.5
 21
39.5
  0
LINE
  8
0
 10
18.5
 11
18.5
 20
39.5
 21
20.5
  0
LINE
  8
0
 10
18.5
 11
7.5
 20
20.5
 21
20.5
  0
LINE
  8
0
 10
11.4
 11
11.408
 20
17.5
 21
17.657
  0
LINE
  8
0
 10
11.408
 11
11.431
 20
17.657
 21
17.812
  0
LINE
  8
0
 10
11.431
 11
11.469
 20
17.812
 21
17.964
  0
LINE
  8
0
 10
11.469
 11
11.522
 20
17.964
 21
18.112
  0
LINE
  8
0
 10
11.522
 11
11.589
 20
18.112
 21
18.254
  0
LINE
  8
0
 10
11.589
 11
11.67
 20
18.254
 21
18.389
  0
LINE
  8
0
 10
11.67
 11
11.763
 20
18.389
 21
18.515
  0
LINE
  8
0
 10
11.763
 11
11.869
 20
18.515
 21
18.631
  0
LINE
  8
0
 10
11.869
 11
11.985
 20
18.631
 21
18.737
  0
LINE
  8
0
 10
11.985
 11
12.111
 20
18.737
 21
18.83
  0
LINE
  8
0
 10
12.111
 11
12.246
 20
18.83
 21
18.911
  0
LINE
  8
0
 10
12.246
 11
12.388
 20
18.911
 21
18.978
  0
LINE
  8
0
 10
12.388
 11
12.536
 20
18.978
 21
19.031
  0
LINE
  8
0
 10
12.536
 11
12.688
 20
19.031
 21
19.069
  0
LINE
  8
0
 10
12.688
 11
12.843
 20
19.069
 21
19.092
  0
LINE
  8
0
 10
12.843
 11
13
 20
19.092
 21
19.1
  0
LINE
  8
0
 10
13
 11
13.157
 20
19.1
 21
19.092
  0
LINE
  8
0
 10
13.157
 11
13.312
 20
19.092
 21
19.069
  0
LINE
  8
0
 10
13.312
 11
13.464
 20
19.069
 21
19.031
  0
LINE
  8
0
 10
13.464
 11
13.612
 20
19.031
 21
18.978
  0
LINE
  8
0
 10
13.612
 11
13.754
 20
18.978
 21
18.911
  0
LINE
  8
0
 10
13.754
 11
13.889
 20
18.911
 21
18.83
  0
LINE
  8
0
 10
13.889
 11
14.015
 20
18.83
 21
18.737
  0
LINE
  8
0
 10
14.015
 11
14.131
 20
18.737
 21
18.631
  0
LINE
  8
0
 10
14.131
 11
14.237
 20
18.631
 21
18.515
  0
LINE
  8
0
 10
14.237
 11
14.33
 20
18.515
 21
18.389
  0
LINE
  8
0
 10
14.33
 11
14.411
 20
18.389
 21
18.254
  0
LINE
  8
0
 10
14.411
 11
14.478
 20
18.254
 21
18.112
  0
LINE
  8
0
 10
14.478
 11
14.531
 20
18.112
 21
17.964
  0
LINE
  8
0
 10
14.531
 11
14.569
 20
17.964
 21
17.812
  0
LINE
  8
0
 10
14.569
 11
14.592
 20
17.812
 21
17.657
  0
LINE
  8
0
 10
14.592
 11
14.6
 20
17.657
 21
17.5
  0
LINE
  8
0
 10
14.6
 11
14.592
 20
17.5
 21
17.343
  0
LINE
  8
0
 10
14.592
 11
14.569
 20
17.343
 21
17.188
  0
LINE
  8
0
 10
14.569
 11
14.531
 20
17.188
 21
17.036
  0
LINE
  8
0
 10
14.531
 11
14.478
 20
17.036
 21
16.888
  0
LINE
  8
0
 10
14.478
 11
14.411
 20
16.888
 21
16.746
  0
LINE
  8
0
 10
14.411
 11
14.33
 20
16.746
 21
16.611
  0
LINE
  8
0
 10
14.33
 11
14.237
 20
16.611
 21
16.485
  0
LINE
  8
0
 10
14.237
 11
14.131
 20
16.485
 21
16.369
  0
LINE
  8
0
 10
14.131
 11
14.015
 20
16.369
 21
16.263
  0
LINE
  8
0
 10
14.015
 11
13.889
 20
16.263
 21
16.17
  0
LINE
  8
0
 10
13.889
 11
13.754
 20
16.17
 21
16.089
  0
LINE
  8
0
 10
13.754
 11
13.612
 20
16.089
 21
16.022
  0
LINE
  8
0
 10
13.612
 11
13.464
 20
16.022
 21
15.969
  0
LINE
  8
0
 10
13.464
 11
13.312
 20
15.969
 21
15.931
  0
LINE
  8
0
 10
13.312
 11
13.157
 20
15.931
 21
15.908
  0
LINE
  8
0
 10
13.157
 11
13
 20
15.908
 21
15.9
  0
LINE
  8
0
 10
13
 11
12.843
 20
15.9
 21
15.908
  0
LINE
  8
0
 10
12.843
 11
12.688
 20
15.908
 21
15.931
  0
LINE
  8
0
 10
12.688
 11
12.536
 20
15.931
 21
15.969
  0
LINE
  8
0
 10
12.536
 11
12.388
 20
15.969
 21
16.022
  0
LINE
  8
0
 10
12.388
 11
12.246
 20
16.022
 21
16.089
  0
LINE
  8
0
 10
12.246
 11
12.111
 20
16.089
 21
16.17
  0
LINE
  8
0
 10
12.111
 11
11.985
 20
16.17
 21
16.263
  0
LINE
  8
0
 10
11.985
 11
11.869
 20
16.263
 21
16.369
  0
LINE
  8
0
 10
11.869
 11
11.763
 20
16.369
 21
16.485
  0
LINE
  8
0
 10
11.763
 11
11.67
 20
16.485
 21
16.611
  0
LINE
  8
0
 10
11.67
 11
11.589
 20
16.611
 21
16.746
  0
LINE
  8
0
 10
11.589
 11
11.522
 20
16.746
 21
16.888
  0
LINE
  8
0
 10
11.522
 11
11.469
 20
16.888
 21
17.036
  0
LINE
  8
0
 10
11.469
 11
11.431
 20
17.036
 21
17.188
  0
LINE
  8
0
 10
11.431
 11
11.408
 20
17.188
 21
17.343
  0
LINE
  8
0
 10
11.408
 11
11.4
 20
17.343
 21
17.5
  0
LINE
  8
0
 10
11.4
 11
11.408
 20
42.5
 21
42.657
  0
LINE
  8
0
 10
11.408
 11
11.431
 20
42.657
 21
42.812
  0
LINE
  8
0
 10
11.431
 11
11.469
 20
42.812
 21
42.964
  0
LINE
  8
0
 10
11.469
 11
11.522
 20
42.964
 21
43.112
  0
LINE
  8
0
 10
11.522
 11
11.589
 20
43.112
 21
43.254
  0
LINE
  8
0
 10
11.589
 11
11.67
 20
43.254
 21
43.389
  0
LINE
  8
0
 10
11.67
 11
11.763
 20
43.389
 21
43.515
  0
LINE
  8
0
 10
11.763
 11
11.869
 20
43.515
 21
43.631
  0
LINE
  8
0
 10
11.869
 11
11.985
 20
43.631
 21
43.737
  0
LINE
  8
0
 10
11.985
 11
12.111
 20
43.737
 21
43.83
  0
LINE
  8
0
 10
12.111
 11
12.246
 20
43.83
 21
43.911
  0
LINE
  8
0
 10
12.246
 11
12.388
 20
43.911
 21
43.978
  0
LINE
  8
0
 10
12.388
 11
12.536
 20
43.978
 21
44.031
  0
LINE
  8
0
 10
12.536
 11
12.688
 20
44.031
 21
44.069
  0
LINE
  8
0
 10
12.688
 11
12.843
 20
44.069
 21
44.092
  0
LINE
  8
0
 10
12.843
 11
13
 20
44.092
 21
44.1
  0
LINE
  8
0
 10
13
 11
13.157
 20
44.1
 21
44.092
  0
LINE
  8
0
 10
13.157
 11
13.312
 20
44.092
 21
44.069
  0
LINE
  8
0
 10
13.312
 11
13.464
 20
44.069
 21
44.031
  0
LINE
  8
0
 10
13.464
 11
13.612
 20
44.031
 21
43.978
  0
LINE
  8
0
 10
13.612
 11
13.754
 20
43.978
 21
43.911
  0
LINE
  8
0
 10
13.754
 11
13.889
 20
43.911
 21
43.83
  0
LINE
  8
0
 10
13.889
 11
14.015
 20
43.83
 21
43.737
  0
LINE
  8
0
 10
14.015
 11
14.131
 20
43.737
 21
43.631
  0
LINE
  8
0
 10
14.131
 11
14.237
 20
43.631
 21
43.515
  0
LINE
  8
0
 10
14.237
 11
14.33
 20
43.515
 21
43.389
  0
LINE
  8
0
 10
14.33
 11
14.411
 20
43.389
 21
43.254
  0
LINE
  8
0
 10
14.411
 11
14.478
 20
43.254
 21
43.112
  0
LINE
  8
0
 10
14.478
 11
14.531
 20
43.112
 21
42.964
  0
LINE
  8
0
 10
14.531
 11
14.569
 20
42.964
 21
42.812
  0
LINE
  8
0
 10
14.569
 11
14.592
 20
42.812
 21
42.657
  0
LINE
  8
0
 10
14.592
 11
14.6
 20
42.657
 21
42.5
  0
LINE
  8
0
 10
14.6
 11
14.592
 20
42.5
 21
42.343
  0
LINE
  8
0
 10
14.592
 11
14.569
 20
42.343
 21
42.188
  0
LINE
  8
0
 10
14.569
 11
14.531
 20
42.188
 21
42.036
  0
LINE
  8
0
 10
14.531
 11
14.478
 20
42.036
 21
41.888
  0
LINE
  8
0
 10
14.478
 11
14.411
 20
41.888
 21
41.746
  0
LINE
  8
0
 10
14.411
 11
14.33
 20
41.746
 21
41.611
  0
LINE
  8
0
 10
14.33
 11
14.237
 20
41.611
 21
41.485
  0
LINE
  8
0
 10
14.237
 11
14.131
 20
41.485
 21
41.369
  0
LINE
  8
0
 10
14.131
 11
14.015
 20
41.369
 21
41.263
  0
LINE
  8
0
 10
14.015
 11
13.889
 20
41.263
 21
41.17
  0
LINE
  8
0
 10
13.889
 11
13.754
 20
41.17
 21
41.089
  0
LINE
  8
0
 10
13.754
 11
13.612
 20
41.089
 21
41.022
  0
LINE
  8
0
 10
13.612
 11
13.464
 20
41.022
 21
40.969
  0
LINE
  8
0
 10
13.464
 11
13.312
 20
40.969
 21
40.931
  0
LINE
  8
0
 10
13.312
 11
13.157
 20
40.931
 21
40.908
  0
LINE
  8
0
 10
13.157
 11
13
 20
40.908
 21
40.9
  0
LINE
  8
0
 10
13
 11
12.843
 20
40.9
 21
40.908
  0
LINE
  8
0
 10
12.843
 11
12.688
 20
40.908
 21
40.931
  0
LINE
  8
0
 10
12.688
 11
12.536
 20
40.931
 21
40.969
  0
LINE
  8
0
 10
12.536
 11
12.388
 20
40.969
 21
41.022
  0
LINE
  8
0
 10
12.388
 11
12.246
 20
41.022
 21
41.089
  0
LINE
  8
0
 10
12.246
 11
12.111
 20
41.089
 21
41.17
  0
LINE
  8
0
 10
12.111
 11
11.985
 20
41.17
 21
41.263
  0
LINE
  8
0
 10
11.985
 11
11.869
 20
41.263
 21
41.369
  0
LINE
  8
0
 10
11.869
 11
11.763
 20
41.369
 21
41.485
  0
LINE
  8
0
 10
11.763
 11
11.67
 20
41.485
 21
41.611
  0
LINE
  8
0
 10
11.67
 11
11.589
 20
41.611
 21
41.746
  0
LINE
  8
0
 10
11.589
 11
11.522
 20
41.746
 21
41.888
  0
LINE
  8
0
 10
11.522
 11
11.469
 20
41.888
 21
42.036
  0
LINE
  8
0
 10
11.469
 11
11.431
 20
42.036
 21
42.188
  0
LINE
  8
0
 10
11.431
 11
11.408
 20
42.188
 21
42.343
  0
LINE
  8
0
 10
11.408
 11
11.4
 20
42.343
 21
42.5
  0
ENDSEC
  0
SECTION
  2
OBJECTS
  0
DICTIONARY
  0
ENDSEC
  0
EOF
