  0
SECTION
  2
BLOCKS
  0
ENDSEC
  0
SECTION
  2
ENTITIES
  0
LINE
  8
0
 10
0
 11
0
 20
13.016
 21
23.031
  0
LINE
  8
0
 10
0
 11
3
 20
23.031
 21
23.031
  0
LINE
  8
0
 10
3
 11
3
 20
23.031
 21
33.047
  0
LINE
  8
0
 10
3
 11
0
 20
33.047
 21
33.047
  0
LINE
  8
0
 10
0
 11
0
 20
33.047
 21
43.062
  0
LINE
  8
0
 10
0
 11
3
 20
43.062
 21
43.062
  0
LINE
  8
0
 10
3
 11
3
 20
43.062
 21
53.078
  0
LINE
  8
0
 10
3
 11
0
 20
53.078
 21
53.078
  0
LINE
  8
0
 10
0
 11
0
 20
53.078
 21
63.093
  0
LINE
  8
0
 10
0
 11
3
 20
63.093
 21
63.093
  0
LINE
  8
0
 10
3
 11
3
 20
63.093
 21
73.109
  0
LINE
  8
0
 10
3
 11
0
 20
73.109
 21
73.109
  0
LINE
  8
0
 10
0
 11
0
 20
73.109
 21
83.124
  0
LINE
  8
0
 10
0
 11
3
 20
83.124
 21
83.124
  0
LINE
  8
0
 10
3
 11
3
 20
83.124
 21
93.14
  0
LINE
  8
0
 10
3
 11
0
 20
93.14
 21
93.14
  0
LINE
  8
0
 10
0
 11
0
 20
93.14
 21
103.155
  0
LINE
  8
0
 10
0
 11
3
 20
103.155
 21
103.155
  0
LINE
  8
0
 10
3
 11
3
 20
103.155
 21
113.171
  0
LINE
  8
0
 10
3
 11
0
 20
113.171
 21
113.171
  0
LINE
  8
0
 10
0
 11
0
 20
113.171
 21
123.186
  0
LINE
  8
0
 10
0
 11
3
 20
123.186
 21
123.186
  0
LINE
  8
0
 10
3
 11
3
 20
123.186
 21
133.202
  0
LINE
  8
0
 10
3
 11
0
 20
133.202
 21
133.202
  0
LINE
  8
0
 10
0
 11
0
 20
133.202
 21
143.217
  0
LINE
  8
0
 10
0
 11
3
 20
143.217
 21
143.217
  0
LINE
  8
0
 10
3
 11
3
 20
143.217
 21
153.233
  0
LINE
  8
0
 10
3
 11
0
 20
153.233
 21
153.233
  0
LINE
  8
0
 10
0
 11
0
 20
153.233
 21
163.248
  0
LINE
  8
0
 10
0
 11
3
 20
163.248
 21
163.248
  0
LINE
  8
0
 10
3
 11
3
 20
163.248
 21
173.264
  0
LINE
  8
0
 10
3
 11
0
 20
173.264
 21
173.264
  0
LINE
  8
0
 10
0
 11
0
 20
173.264
 21
183.28
  0
LINE
  8
0
 10
0
 11
3
 20
183.28
 21
183.28
  0
LINE
  8
0
 10
3
 11
3
 20
183.28
 21
193.296
  0
LINE
  8
0
 10
3
 11
0
 20
193.296
 21
193.296
  0
LINE
  8
0
 10
0
 11
0
 20
193.296
 21
203.311
  0
LINE
  8
0
 10
0
 11
3
 20
203.311
 21
203.311
  0
LINE
  8
0
 10
3
 11
3
 20
203.311
 21
213.327
  0
LINE
  8
0
 10
3
 11
0
 20
213.327
 21
213.327
  0
LINE
  8
0
 10
0
 11
0
 20
213.327
 21
223.342
  0
LINE
  8
0
 10
0
 11
3
 20
223.342
 21
223.342
  0
LINE
  8
0
 10
3
 11
3
 20
223.342
 21
233.358
  0
LINE
  8
0
 10
3
 11
0
 20
233.358
 21
233.358
  0
LINE
  8
0
 10
0
 11
0
 20
233.358
 21
243.373
  0
LINE
  8
0
 10
0
 11
3
 20
243.373
 21
243.373
  0
LINE
  8
0
 10
3
 11
3
 20
243.373
 21
253.389
  0
LINE
  8
0
 10
3
 11
0
 20
253.389
 21
253.389
  0
LINE
  8
0
 10
0
 11
0
 20
253.389
 21
263.404
  0
LINE
  8
0
 10
0
 11
3
 20
263.404
 21
263.404
  0
LINE
  8
0
 10
3
 11
3
 20
263.404
 21
273.42
  0
LINE
  8
0
 10
3
 11
0
 20
273.42
 21
273.42
  0
LINE
  8
0
 10
0
 11
0
 20
273.42
 21
283.435
  0
LINE
  8
0
 10
0
 11
3
 20
283.435
 21
283.435
  0
LINE
  8
0
 10
3
 11
3
 20
283.435
 21
293.451
  0
LINE
  8
0
 10
3
 11
0
 20
293.451
 21
293.451
  0
LINE
  8
0
 10
0
 11
0
 20
293.451
 21
303.466
  0
LINE
  8
0
 10
0
 11
3
 20
303.466
 21
303.466
  0
LINE
  8
0
 10
3
 11
3
 20
303.466
 21
313.482
  0
LINE
  8
0
 10
3
 11
0
 20
313.482
 21
313.482
  0
LINE
  8
0
 10
0
 11
0
 20
313.482
 21
323.497
  0
LINE
  8
0
 10
0
 11
3
 20
323.497
 21
323.497
  0
LINE
  8
0
 10
3
 11
3
 20
323.497
 21
333.513
  0
LINE
  8
0
 10
3
 11
0
 20
333.513
 21
333.513
  0
LINE
  8
0
 10
0
 11
0
 20
333.513
 21
343.528
  0
LINE
  8
0
 10
0
 11
3
 20
343.528
 21
343.528
  0
LINE
  8
0
 10
3
 11
3
 20
343.528
 21
353.544
  0
LINE
  8
0
 10
3
 11
0
 20
353.544
 21
353.544
  0
LINE
  8
0
 10
0
 11
0
 20
353.544
 21
363.56
  0
LINE
  8
0
 10
0
 11
3
 20
363.56
 21
363.56
  0
LINE
  8
0
 10
3
 11
3
 20
363.56
 21
373.576
  0
LINE
  8
0
 10
3
 11
0
 20
373.576
 21
373.576
  0
LINE
  8
0
 10
0
 11
0
 20
373.576
 21
383.591
  0
LINE
  8
0
 10
0
 11
3
 20
383.591
 21
383.591
  0
LINE
  8
0
 10
3
 11
3
 20
383.591
 21
393.607
  0
LINE
  8
0
 10
3
 11
0
 20
393.607
 21
393.607
  0
LINE
  8
0
 10
0
 11
0
 20
393.607
 21
403.622
  0
LINE
  8
0
 10
0
 11
3
 20
403.622
 21
403.622
  0
LINE
  8
0
 10
3
 11
3
 20
403.622
 21
413.638
  0
LINE
  8
0
 10
3
 11
0
 20
413.638
 21
413.638
  0
LINE
  8
0
 10
0
 11
0
 20
413.638
 21
423.653
  0
LINE
  8
0
 10
0
 11
3
 20
423.653
 21
423.653
  0
LINE
  8
0
 10
3
 11
3
 20
423.653
 21
433.669
  0
LINE
  8
0
 10
3
 11
0
 20
433.669
 21
433.669
  0
LINE
  8
0
 10
0
 11
0
 20
433.669
 21
443.684
  0
LINE
  8
0
 10
0
 11
3
 20
443.684
 21
443.684
  0
LINE
  8
0
 10
3
 11
3
 20
443.684
 21
456.7
  0
LINE
  8
0
 10
3
 11
9.666
 20
456.7
 21
456.7
  0
LINE
  8
0
 10
9.666
 11
9.666
 20
456.7
 21
453.7
  0
LINE
  8
0
 10
9.666
 11
16.333
 20
453.7
 21
453.7
  0
LINE
  8
0
 10
16.333
 11
16.333
 20
453.7
 21
456.7
  0
LINE
  8
0
 10
16.333
 11
23
 20
456.7
 21
456.7
  0
LINE
  8
0
 10
23
 11
23
 20
456.7
 21
443.684
  0
LINE
  8
0
 10
23
 11
26
 20
443.684
 21
443.684
  0
LINE
  8
0
 10
26
 11
26
 20
443.684
 21
433.669
  0
LINE
  8
0
 10
26
 11
23
 20
433.669
 21
433.669
  0
LINE
  8
0
 10
23
 11
23
 20
433.669
 21
423.653
  0
LINE
  8
0
 10
23
 11
26
 20
423.653
 21
423.653
  0
LINE
  8
0
 10
26
 11
26
 20
423.653
 21
413.638
  0
LINE
  8
0
 10
26
 11
23
 20
413.638
 21
413.638
  0
LINE
  8
0
 10
23
 11
23
 20
413.638
 21
403.622
  0
LINE
  8
0
 10
23
 11
26
 20
403.622
 21
403.622
  0
LINE
  8
0
 10
26
 11
26
 20
403.622
 21
393.607
  0
LINE
  8
0
 10
26
 11
23
 20
393.607
 21
393.607
  0
LINE
  8
0
 10
23
 11
23
 20
393.607
 21
383.591
  0
LINE
  8
0
 10
23
 11
26
 20
383.591
 21
383.591
  0
LINE
  8
0
 10
26
 11
26
 20
383.591
 21
373.576
  0
LINE
  8
0
 10
26
 11
23
 20
373.576
 21
373.576
  0
LINE
  8
0
 10
23
 11
23
 20
373.576
 21
363.56
  0
LINE
  8
0
 10
23
 11
26
 20
363.56
 21
363.56
  0
LINE
  8
0
 10
26
 11
26
 20
363.56
 21
353.545
  0
LINE
  8
0
 10
26
 11
23
 20
353.545
 21
353.545
  0
LINE
  8
0
 10
23
 11
23
 20
353.545
 21
343.529
  0
LINE
  8
0
 10
23
 11
26
 20
343.529
 21
343.529
  0
LINE
  8
0
 10
26
 11
26
 20
343.529
 21
333.514
  0
LINE
  8
0
 10
26
 11
23
 20
333.514
 21
333.514
  0
LINE
  8
0
 10
23
 11
23
 20
333.514
 21
323.498
  0
LINE
  8
0
 10
23
 11
26
 20
323.498
 21
323.498
  0
LINE
  8
0
 10
26
 11
26
 20
323.498
 21
313.483
  0
LINE
  8
0
 10
26
 11
23
 20
313.483
 21
313.483
  0
LINE
  8
0
 10
23
 11
23
 20
313.483
 21
303.467
  0
LINE
  8
0
 10
23
 11
26
 20
303.467
 21
303.467
  0
LINE
  8
0
 10
26
 11
26
 20
303.467
 21
293.452
  0
LINE
  8
0
 10
26
 11
23
 20
293.452
 21
293.452
  0
LINE
  8
0
 10
23
 11
23
 20
293.452
 21
283.436
  0
LINE
  8
0
 10
23
 11
26
 20
283.436
 21
283.436
  0
LINE
  8
0
 10
26
 11
26
 20
283.436
 21
273.42
  0
LINE
  8
0
 10
26
 11
23
 20
273.42
 21
273.42
  0
LINE
  8
0
 10
23
 11
23
 20
273.42
 21
263.404
  0
LINE
  8
0
 10
23
 11
26
 20
263.404
 21
263.404
  0
LINE
  8
0
 10
26
 11
26
 20
263.404
 21
253.389
  0
LINE
  8
0
 10
26
 11
23
 20
253.389
 21
253.389
  0
LINE
  8
0
 10
23
 11
23
 20
253.389
 21
243.373
  0
LINE
  8
0
 10
23
 11
26
 20
243.373
 21
243.373
  0
LINE
  8
0
 10
26
 11
26
 20
243.373
 21
233.358
  0
LINE
  8
0
 10
26
 11
23
 20
233.358
 21
233.358
  0
LINE
  8
0
 10
23
 11
23
 20
233.358
 21
223.342
  0
LINE
  8
0
 10
23
 11
26
 20
223.342
 21
223.342
  0
LINE
  8
0
 10
26
 11
26
 20
223.342
 21
213.327
  0
LINE
  8
0
 10
26
 11
23
 20
213.327
 21
213.327
  0
LINE
  8
0
 10
23
 11
23
 20
213.327
 21
203.311
  0
LINE
  8
0
 10
23
 11
26
 20
203.311
 21
203.311
  0
LINE
  8
0
 10
26
 11
26
 20
203.311
 21
193.296
  0
LINE
  8
0
 10
26
 11
23
 20
193.296
 21
193.296
  0
LINE
  8
0
 10
23
 11
23
 20
193.296
 21
183.28
  0
LINE
  8
0
 10
23
 11
26
 20
183.28
 21
183.28
  0
LINE
  8
0
 10
26
 11
26
 20
183.28
 21
173.265
  0
LINE
  8
0
 10
26
 11
23
 20
173.265
 21
173.265
  0
LINE
  8
0
 10
23
 11
23
 20
173.265
 21
163.249
  0
LINE
  8
0
 10
23
 11
26
 20
163.249
 21
163.249
  0
LINE
  8
0
 10
26
 11
26
 20
163.249
 21
153.234
  0
LINE
  8
0
 10
26
 11
23
 20
153.234
 21
153.234
  0
LINE
  8
0
 10
23
 11
23
 20
153.234
 21
143.218
  0
LINE
  8
0
 10
23
 11
26
 20
143.218
 21
143.218
  0
LINE
  8
0
 10
26
 11
26
 20
143.218
 21
133.203
  0
LINE
  8
0
 10
26
 11
23
 20
133.203
 21
133.203
  0
LINE
  8
0
 10
23
 11
23
 20
133.203
 21
123.187
  0
LINE
  8
0
 10
23
 11
26
 20
123.187
 21
123.187
  0
LINE
  8
0
 10
26
 11
26
 20
123.187
 21
113.172
  0
LINE
  8
0
 10
26
 11
23
 20
113.172
 21
113.172
  0
LINE
  8
0
 10
23
 11
23
 20
113.172
 21
103.156
  0
LINE
  8
0
 10
23
 11
26
 20
103.156
 21
103.156
  0
LINE
  8
0
 10
26
 11
26
 20
103.156
 21
93.14
  0
LINE
  8
0
 10
26
 11
23
 20
93.14
 21
93.14
  0
LINE
  8
0
 10
23
 11
23
 20
93.14
 21
83.124
  0
LINE
  8
0
 10
23
 11
26
 20
83.124
 21
83.124
  0
LINE
  8
0
 10
26
 11
26
 20
83.124
 21
73.109
  0
LINE
  8
0
 10
26
 11
23
 20
73.109
 21
73.109
  0
LINE
  8
0
 10
23
 11
23
 20
73.109
 21
63.093
  0
LINE
  8
0
 10
23
 11
26
 20
63.093
 21
63.093
  0
LINE
  8
0
 10
26
 11
26
 20
63.093
 21
53.078
  0
LINE
  8
0
 10
26
 11
23
 20
53.078
 21
53.078
  0
LINE
  8
0
 10
23
 11
23
 20
53.078
 21
43.062
  0
LINE
  8
0
 10
23
 11
26
 20
43.062
 21
43.062
  0
LINE
  8
0
 10
26
 11
26
 20
43.062
 21
33.047
  0
LINE
  8
0
 10
26
 11
23
 20
33.047
 21
33.047
  0
LINE
  8
0
 10
23
 11
23
 20
33.047
 21
23.031
  0
LINE
  8
0
 10
23
 11
26
 20
23.031
 21
23.031
  0
LINE
  8
0
 10
26
 11
26
 20
23.031
 21
13.016
  0
LINE
  8
0
 10
26
 11
23
 20
13.016
 21
13.016
  0
LINE
  8
0
 10
23
 11
23
 20
13.016
 21
0
  0
LINE
  8
0
 10
23
 11
16.334
 20
0
 21
0
  0
LINE
  8
0
 10
16.334
 11
16.334
 20
0
 21
3
  0
LINE
  8
0
 10
16.334
 11
9.667
 20
3
 21
3
  0
LINE
  8
0
 10
9.667
 11
9.667
 20
3
 21
0
  0
LINE
  8
0
 10
9.667
 11
3
 20
0
 21
0
  0
LINE
  8
0
 10
3
 11
3
 20
0
 21
13.016
  0
LINE
  8
0
 10
3
 11
0
 20
13.016
 21
13.016
  0
LINE
  8
0
 10
6.5
 11
6.5
 20
45
 21
65
  0
LINE
  8
0
 10
6.5
 11
19.5
 20
65
 21
65
  0
LINE
  8
0
 10
19.5
 11
19.5
 20
65
 21
45
  0
LINE
  8
0
 10
19.5
 11
6.5
 20
45
 21
45
  0
LINE
  8
0
 10
8.75
 11
8.77
 20
30
 21
30.417
  0
LINE
  8
0
 10
8.77
 11
8.832
 20
30.417
 21
30.829
  0
LINE
  8
0
 10
8.832
 11
8.933
 20
30.829
 21
31.234
  0
LINE
  8
0
 10
8.933
 11
9.074
 20
31.234
 21
31.626
  0
LINE
  8
0
 10
9.074
 11
9.252
 20
31.626
 21
32.003
  0
LINE
  8
0
 10
9.252
 11
9.466
 20
32.003
 21
32.361
  0
LINE
  8
0
 10
9.466
 11
9.715
 20
32.361
 21
32.696
  0
LINE
  8
0
 10
9.715
 11
9.995
 20
32.696
 21
33.005
  0
LINE
  8
0
 10
9.995
 11
10.304
 20
33.005
 21
33.285
  0
LINE
  8
0
 10
10.304
 11
10.639
 20
33.285
 21
33.534
  0
LINE
  8
0
 10
10.639
 11
10.997
 20
33.534
 21
33.748
  0
LINE
  8
0
 10
10.997
 11
11.374
 20
33.748
 21
33.926
  0
LINE
  8
0
 10
11.374
 11
11.766
 20
33.926
 21
34.067
  0
LINE
  8
0
 10
11.766
 11
12.171
 20
34.067
 21
34.168
  0
LINE
  8
0
 10
12.171
 11
12.583
 20
34.168
 21
34.23
  0
LINE
  8
0
 10
12.583
 11
13
 20
34.23
 21
34.25
  0
LINE
  8
0
 10
13
 11
13.417
 20
34.25
 21
34.23
  0
LINE
  8
0
 10
13.417
 11
13.829
 20
34.23
 21
34.168
  0
LINE
  8
0
 10
13.829
 11
14.234
 20
34.168
 21
34.067
  0
LINE
  8
0
 10
14.234
 11
14.626
 20
34.067
 21
33.926
  0
LINE
  8
0
 10
14.626
 11
15.003
 20
33.926
 21
33.748
  0
LINE
  8
0
 10
15.003
 11
15.361
 20
33.748
 21
33.534
  0
LINE
  8
0
 10
15.361
 11
15.696
 20
33.534
 21
33.285
  0
LINE
  8
0
 10
15.696
 11
16.005
 20
33.285
 21
33.005
  0
LINE
  8
0
 10
16.005
 11
16.285
 20
33.005
 21
32.696
  0
LINE
  8
0
 10
16.285
 11
16.534
 20
32.696
 21
32.361
  0
LINE
  8
0
 10
16.534
 11
16.748
 20
32.361
 21
32.003
  0
LINE
  8
0
 10
16.748
 11
16.926
 20
32.003
 21
31.626
  0
LINE
  8
0
 10
16.926
 11
17.067
 20
31.626
 21
31.234
  0
LINE
  8
0
 10
17.067
 11
17.168
 20
31.234
 21
30.829
  0
LINE
  8
0
 10
17.168
 11
17.23
 20
30.829
 21
30.417
  0
LINE
  8
0
 10
17.23
 11
17.25
 20
30.417
 21
30
  0
LINE
  8
0
 10
17.25
 11
17.23
 20
30
 21
29.583
  0
LINE
  8
0
 10
17.23
 11
17.168
 20
29.583
 21
29.171
  0
LINE
  8
0
 10
17.168
 11
17.067
 20
29.171
 21
28.766
  0
LINE
  8
0
 10
17.067
 11
16.926
 20
28.766
 21
28.374
  0
LINE
  8
0
 10
16.926
 11
16.748
 20
28.374
 21
27.997
  0
LINE
  8
0
 10
16.748
 11
16.534
 20
27.997
 21
27.639
  0
LINE
  8
0
 10
16.534
 11
16.285
 20
27.639
 21
27.304
  0
LINE
  8
0
 10
16.285
 11
16.005
 20
27.304
 21
26.995
  0
LINE
  8
0
 10
16.005
 11
15.696
 20
26.995
 21
26.715
  0
LINE
  8
0
 10
15.696
 11
15.361
 20
26.715
 21
26.466
  0
LINE
  8
0
 10
15.361
 11
15.003
 20
26.466
 21
26.252
  0
LINE
  8
0
 10
15.003
 11
14.626
 20
26.252
 21
26.074
  0
LINE
  8
0
 10
14.626
 11
14.234
 20
26.074
 21
25.933
  0
LINE
  8
0
 10
14.234
 11
13.829
 20
25.933
 21
25.832
  0
LINE
  8
0
 10
13.829
 11
13.417
 20
25.832
 21
25.77
  0
LINE
  8
0
 10
13.417
 11
13
 20
25.77
 21
25.75
  0
LINE
  8
0
 10
13
 11
12.583
 20
25.75
 21
25.77
  0
LINE
  8
0
 10
12.583
 11
12.171
 20
25.77
 21
25.832
  0
LINE
  8
0
 10
12.171
 11
11.766
 20
25.832
 21
25.933
  0
LINE
  8
0
 10
11.766
 11
11.374
 20
25.933
 21
26.074
  0
LINE
  8
0
 10
11.374
 11
10.997
 20
26.074
 21
26.252
  0
LINE
  8
0
 10
10.997
 11
10.639
 20
26.252
 21
26.466
  0
LINE
  8
0
 10
10.639
 11
10.304
 20
26.466
 21
26.715
  0
LINE
  8
0
 10
10.304
 11
9.995
 20
26.715
 21
26.995
  0
LINE
  8
0
 10
9.995
 11
9.715
 20
26.995
 21
27.304
  0
LINE
  8
0
 10
9.715
 11
9.466
 20
27.304
 21
27.639
  0
LINE
  8
0
 10
9.466
 11
9.252
 20
27.639
 21
27.997
  0
LINE
  8
0
 10
9.252
 11
9.074
 20
27.997
 21
28.374
  0
LINE
  8
0
 10
9.074
 11
8.933
 20
28.374
 21
28.766
  0
LINE
  8
0
 10
8.933
 11
8.832
 20
28.766
 21
29.171
  0
LINE
  8
0
 10
8.832
 11
8.77
 20
29.171
 21
29.583
  0
LINE
  8
0
 10
8.77
 11
8.75
 20
29.583
 21
30
  0
ENDSEC
  0
SECTION
  2
OBJECTS
  0
DICTIONARY
  0
ENDSEC
  0
EOF
