  0
SECTION
  2
BLOCKS
  0
ENDSEC
  0
SECTION
  2
ENTITIES
  0
LINE
  8
0
 10
0
 11
0
 20
9.667
 21
16.333
  0
LINE
  8
0
 10
0
 11
3
 20
16.333
 21
16.333
  0
LINE
  8
0
 10
3
 11
3
 20
16.333
 21
23
  0
LINE
  8
0
 10
3
 11
12.824
 20
23
 21
23
  0
LINE
  8
0
 10
12.824
 11
12.824
 20
23
 21
26
  0
LINE
  8
0
 10
12.824
 11
22.647
 20
26
 21
26
  0
LINE
  8
0
 10
22.647
 11
22.647
 20
26
 21
23
  0
LINE
  8
0
 10
22.647
 11
32.471
 20
23
 21
23
  0
LINE
  8
0
 10
32.471
 11
32.471
 20
23
 21
26
  0
LINE
  8
0
 10
32.471
 11
42.294
 20
26
 21
26
  0
LINE
  8
0
 10
42.294
 11
42.294
 20
26
 21
23
  0
LINE
  8
0
 10
42.294
 11
52.118
 20
23
 21
23
  0
LINE
  8
0
 10
52.118
 11
52.118
 20
23
 21
26
  0
LINE
  8
0
 10
52.118
 11
61.941
 20
26
 21
26
  0
LINE
  8
0
 10
61.941
 11
61.941
 20
26
 21
23
  0
LINE
  8
0
 10
61.941
 11
71.765
 20
23
 21
23
  0
LINE
  8
0
 10
71.765
 11
71.765
 20
23
 21
26
  0
LINE
  8
0
 10
71.765
 11
81.588
 20
26
 21
26
  0
LINE
  8
0
 10
81.588
 11
81.588
 20
26
 21
23
  0
LINE
  8
0
 10
81.588
 11
91.412
 20
23
 21
23
  0
LINE
  8
0
 10
91.412
 11
91.412
 20
23
 21
26
  0
LINE
  8
0
 10
91.412
 11
101.235
 20
26
 21
26
  0
LINE
  8
0
 10
101.235
 11
101.235
 20
26
 21
23
  0
LINE
  8
0
 10
101.235
 11
111.059
 20
23
 21
23
  0
LINE
  8
0
 10
111.059
 11
111.059
 20
23
 21
26
  0
LINE
  8
0
 10
111.059
 11
120.882
 20
26
 21
26
  0
LINE
  8
0
 10
120.882
 11
120.882
 20
26
 21
23
  0
LINE
  8
0
 10
120.882
 11
130.706
 20
23
 21
23
  0
LINE
  8
0
 10
130.706
 11
130.706
 20
23
 21
26
  0
LINE
  8
0
 10
130.706
 11
140.529
 20
26
 21
26
  0
LINE
  8
0
 10
140.529
 11
140.529
 20
26
 21
23
  0
LINE
  8
0
 10
140.529
 11
150.353
 20
23
 21
23
  0
LINE
  8
0
 10
150.353
 11
150.353
 20
23
 21
26
  0
LINE
  8
0
 10
150.353
 11
160.176
 20
26
 21
26
  0
LINE
  8
0
 10
160.176
 11
160.176
 20
26
 21
23
  0
LINE
  8
0
 10
160.176
 11
170
 20
23
 21
23
  0
LINE
  8
0
 10
170
 11
170
 20
23
 21
16.333
  0
LINE
  8
0
 10
170
 11
173
 20
16.333
 21
16.333
  0
LINE
  8
0
 10
173
 11
173
 20
16.333
 21
9.667
  0
LINE
  8
0
 10
173
 11
170
 20
9.667
 21
9.667
  0
LINE
  8
0
 10
170
 11
170
 20
9.667
 21
3
  0
LINE
  8
0
 10
170
 11
160.176
 20
3
 21
3
  0
LINE
  8
0
 10
160.176
 11
160.176
 20
3
 21
0
  0
LINE
  8
0
 10
160.176
 11
150.353
 20
0
 21
0
  0
LINE
  8
0
 10
150.353
 11
150.353
 20
0
 21
3
  0
LINE
  8
0
 10
150.353
 11
140.529
 20
3
 21
3
  0
LINE
  8
0
 10
140.529
 11
140.529
 20
3
 21
0
  0
LINE
  8
0
 10
140.529
 11
130.706
 20
0
 21
0
  0
LINE
  8
0
 10
130.706
 11
130.706
 20
0
 21
3
  0
LINE
  8
0
 10
130.706
 11
120.882
 20
3
 21
3
  0
LINE
  8
0
 10
120.882
 11
120.882
 20
3
 21
0
  0
LINE
  8
0
 10
120.882
 11
111.059
 20
0
 21
0
  0
LINE
  8
0
 10
111.059
 11
111.059
 20
0
 21
3
  0
LINE
  8
0
 10
111.059
 11
101.235
 20
3
 21
3
  0
LINE
  8
0
 10
101.235
 11
101.235
 20
3
 21
0
  0
LINE
  8
0
 10
101.235
 11
91.412
 20
0
 21
0
  0
LINE
  8
0
 10
91.412
 11
91.412
 20
0
 21
3
  0
LINE
  8
0
 10
91.412
 11
81.588
 20
3
 21
3
  0
LINE
  8
0
 10
81.588
 11
81.588
 20
3
 21
0
  0
LINE
  8
0
 10
81.588
 11
71.765
 20
0
 21
0
  0
LINE
  8
0
 10
71.765
 11
71.765
 20
0
 21
3
  0
LINE
  8
0
 10
71.765
 11
61.941
 20
3
 21
3
  0
LINE
  8
0
 10
61.941
 11
61.941
 20
3
 21
0
  0
LINE
  8
0
 10
61.941
 11
52.118
 20
0
 21
0
  0
LINE
  8
0
 10
52.118
 11
52.118
 20
0
 21
3
  0
LINE
  8
0
 10
52.118
 11
42.294
 20
3
 21
3
  0
LINE
  8
0
 10
42.294
 11
42.294
 20
3
 21
0
  0
LINE
  8
0
 10
42.294
 11
32.471
 20
0
 21
0
  0
LINE
  8
0
 10
32.471
 11
32.471
 20
0
 21
3
  0
LINE
  8
0
 10
32.471
 11
22.647
 20
3
 21
3
  0
LINE
  8
0
 10
22.647
 11
22.647
 20
3
 21
0
  0
LINE
  8
0
 10
22.647
 11
12.824
 20
0
 21
0
  0
LINE
  8
0
 10
12.824
 11
12.824
 20
0
 21
3
  0
LINE
  8
0
 10
12.824
 11
3
 20
3
 21
3
  0
LINE
  8
0
 10
3
 11
3
 20
3
 21
9.667
  0
LINE
  8
0
 10
3
 11
0
 20
9.667
 21
9.667
  0
LINE
  8
0
 10
32.5
 11
32.51
 20
13.1
 21
13.296
  0
LINE
  8
0
 10
32.51
 11
32.538
 20
13.296
 21
13.49
  0
LINE
  8
0
 10
32.538
 11
32.586
 20
13.49
 21
13.681
  0
LINE
  8
0
 10
32.586
 11
32.652
 20
13.681
 21
13.865
  0
LINE
  8
0
 10
32.652
 11
32.736
 20
13.865
 21
14.043
  0
LINE
  8
0
 10
32.736
 11
32.837
 20
14.043
 21
14.211
  0
LINE
  8
0
 10
32.837
 11
32.954
 20
14.211
 21
14.369
  0
LINE
  8
0
 10
32.954
 11
33.086
 20
14.369
 21
14.514
  0
LINE
  8
0
 10
33.086
 11
33.231
 20
14.514
 21
14.646
  0
LINE
  8
0
 10
33.231
 11
33.389
 20
14.646
 21
14.763
  0
LINE
  8
0
 10
33.389
 11
33.557
 20
14.763
 21
14.864
  0
LINE
  8
0
 10
33.557
 11
33.735
 20
14.864
 21
14.948
  0
LINE
  8
0
 10
33.735
 11
33.919
 20
14.948
 21
15.014
  0
LINE
  8
0
 10
33.919
 11
34.11
 20
15.014
 21
15.062
  0
LINE
  8
0
 10
34.11
 11
34.304
 20
15.062
 21
15.09
  0
LINE
  8
0
 10
34.304
 11
34.5
 20
15.09
 21
15.1
  0
LINE
  8
0
 10
34.5
 11
34.696
 20
15.1
 21
15.09
  0
LINE
  8
0
 10
34.696
 11
34.89
 20
15.09
 21
15.062
  0
LINE
  8
0
 10
34.89
 11
35.081
 20
15.062
 21
15.014
  0
LINE
  8
0
 10
35.081
 11
35.265
 20
15.014
 21
14.948
  0
LINE
  8
0
 10
35.265
 11
35.443
 20
14.948
 21
14.864
  0
LINE
  8
0
 10
35.443
 11
35.611
 20
14.864
 21
14.763
  0
LINE
  8
0
 10
35.611
 11
35.769
 20
14.763
 21
14.646
  0
LINE
  8
0
 10
35.769
 11
35.914
 20
14.646
 21
14.514
  0
LINE
  8
0
 10
35.914
 11
36.046
 20
14.514
 21
14.369
  0
LINE
  8
0
 10
36.046
 11
36.163
 20
14.369
 21
14.211
  0
LINE
  8
0
 10
36.163
 11
36.264
 20
14.211
 21
14.043
  0
LINE
  8
0
 10
36.264
 11
36.348
 20
14.043
 21
13.865
  0
LINE
  8
0
 10
36.348
 11
36.414
 20
13.865
 21
13.681
  0
LINE
  8
0
 10
36.414
 11
36.462
 20
13.681
 21
13.49
  0
LINE
  8
0
 10
36.462
 11
36.49
 20
13.49
 21
13.296
  0
LINE
  8
0
 10
36.49
 11
36.5
 20
13.296
 21
13.1
  0
LINE
  8
0
 10
36.5
 11
36.49
 20
13.1
 21
12.904
  0
LINE
  8
0
 10
36.49
 11
36.462
 20
12.904
 21
12.71
  0
LINE
  8
0
 10
36.462
 11
36.414
 20
12.71
 21
12.519
  0
LINE
  8
0
 10
36.414
 11
36.348
 20
12.519
 21
12.335
  0
LINE
  8
0
 10
36.348
 11
36.264
 20
12.335
 21
12.157
  0
LINE
  8
0
 10
36.264
 11
36.163
 20
12.157
 21
11.989
  0
LINE
  8
0
 10
36.163
 11
36.046
 20
11.989
 21
11.831
  0
LINE
  8
0
 10
36.046
 11
35.914
 20
11.831
 21
11.686
  0
LINE
  8
0
 10
35.914
 11
35.769
 20
11.686
 21
11.554
  0
LINE
  8
0
 10
35.769
 11
35.611
 20
11.554
 21
11.437
  0
LINE
  8
0
 10
35.611
 11
35.443
 20
11.437
 21
11.336
  0
LINE
  8
0
 10
35.443
 11
35.265
 20
11.336
 21
11.252
  0
LINE
  8
0
 10
35.265
 11
35.081
 20
11.252
 21
11.186
  0
LINE
  8
0
 10
35.081
 11
34.89
 20
11.186
 21
11.138
  0
LINE
  8
0
 10
34.89
 11
34.696
 20
11.138
 21
11.11
  0
LINE
  8
0
 10
34.696
 11
34.5
 20
11.11
 21
11.1
  0
LINE
  8
0
 10
34.5
 11
34.304
 20
11.1
 21
11.11
  0
LINE
  8
0
 10
34.304
 11
34.11
 20
11.11
 21
11.138
  0
LINE
  8
0
 10
34.11
 11
33.919
 20
11.138
 21
11.186
  0
LINE
  8
0
 10
33.919
 11
33.735
 20
11.186
 21
11.252
  0
LINE
  8
0
 10
33.735
 11
33.557
 20
11.252
 21
11.336
  0
LINE
  8
0
 10
33.557
 11
33.389
 20
11.336
 21
11.437
  0
LINE
  8
0
 10
33.389
 11
33.231
 20
11.437
 21
11.554
  0
LINE
  8
0
 10
33.231
 11
33.086
 20
11.554
 21
11.686
  0
LINE
  8
0
 10
33.086
 11
32.954
 20
11.686
 21
11.831
  0
LINE
  8
0
 10
32.954
 11
32.837
 20
11.831
 21
11.989
  0
LINE
  8
0
 10
32.837
 11
32.736
 20
11.989
 21
12.157
  0
LINE
  8
0
 10
32.736
 11
32.652
 20
12.157
 21
12.335
  0
LINE
  8
0
 10
32.652
 11
32.586
 20
12.335
 21
12.519
  0
LINE
  8
0
 10
32.586
 11
32.538
 20
12.519
 21
12.71
  0
LINE
  8
0
 10
32.538
 11
32.51
 20
12.71
 21
12.904
  0
LINE
  8
0
 10
32.51
 11
32.5
 20
12.904
 21
13.1
  0
LINE
  8
0
 10
136.5
 11
136.51
 20
13.1
 21
13.296
  0
LINE
  8
0
 10
136.51
 11
136.538
 20
13.296
 21
13.49
  0
LINE
  8
0
 10
136.538
 11
136.586
 20
13.49
 21
13.681
  0
LINE
  8
0
 10
136.586
 11
136.652
 20
13.681
 21
13.865
  0
LINE
  8
0
 10
136.652
 11
136.736
 20
13.865
 21
14.043
  0
LINE
  8
0
 10
136.736
 11
136.837
 20
14.043
 21
14.211
  0
LINE
  8
0
 10
136.837
 11
136.954
 20
14.211
 21
14.369
  0
LINE
  8
0
 10
136.954
 11
137.086
 20
14.369
 21
14.514
  0
LINE
  8
0
 10
137.086
 11
137.231
 20
14.514
 21
14.646
  0
LINE
  8
0
 10
137.231
 11
137.389
 20
14.646
 21
14.763
  0
LINE
  8
0
 10
137.389
 11
137.557
 20
14.763
 21
14.864
  0
LINE
  8
0
 10
137.557
 11
137.735
 20
14.864
 21
14.948
  0
LINE
  8
0
 10
137.735
 11
137.919
 20
14.948
 21
15.014
  0
LINE
  8
0
 10
137.919
 11
138.11
 20
15.014
 21
15.062
  0
LINE
  8
0
 10
138.11
 11
138.304
 20
15.062
 21
15.09
  0
LINE
  8
0
 10
138.304
 11
138.5
 20
15.09
 21
15.1
  0
LINE
  8
0
 10
138.5
 11
138.696
 20
15.1
 21
15.09
  0
LINE
  8
0
 10
138.696
 11
138.89
 20
15.09
 21
15.062
  0
LINE
  8
0
 10
138.89
 11
139.081
 20
15.062
 21
15.014
  0
LINE
  8
0
 10
139.081
 11
139.265
 20
15.014
 21
14.948
  0
LINE
  8
0
 10
139.265
 11
139.443
 20
14.948
 21
14.864
  0
LINE
  8
0
 10
139.443
 11
139.611
 20
14.864
 21
14.763
  0
LINE
  8
0
 10
139.611
 11
139.769
 20
14.763
 21
14.646
  0
LINE
  8
0
 10
139.769
 11
139.914
 20
14.646
 21
14.514
  0
LINE
  8
0
 10
139.914
 11
140.046
 20
14.514
 21
14.369
  0
LINE
  8
0
 10
140.046
 11
140.163
 20
14.369
 21
14.211
  0
LINE
  8
0
 10
140.163
 11
140.264
 20
14.211
 21
14.043
  0
LINE
  8
0
 10
140.264
 11
140.348
 20
14.043
 21
13.865
  0
LINE
  8
0
 10
140.348
 11
140.414
 20
13.865
 21
13.681
  0
LINE
  8
0
 10
140.414
 11
140.462
 20
13.681
 21
13.49
  0
LINE
  8
0
 10
140.462
 11
140.49
 20
13.49
 21
13.296
  0
LINE
  8
0
 10
140.49
 11
140.5
 20
13.296
 21
13.1
  0
LINE
  8
0
 10
140.5
 11
140.49
 20
13.1
 21
12.904
  0
LINE
  8
0
 10
140.49
 11
140.462
 20
12.904
 21
12.71
  0
LINE
  8
0
 10
140.462
 11
140.414
 20
12.71
 21
12.519
  0
LINE
  8
0
 10
140.414
 11
140.348
 20
12.519
 21
12.335
  0
LINE
  8
0
 10
140.348
 11
140.264
 20
12.335
 21
12.157
  0
LINE
  8
0
 10
140.264
 11
140.163
 20
12.157
 21
11.989
  0
LINE
  8
0
 10
140.163
 11
140.046
 20
11.989
 21
11.831
  0
LINE
  8
0
 10
140.046
 11
139.914
 20
11.831
 21
11.686
  0
LINE
  8
0
 10
139.914
 11
139.769
 20
11.686
 21
11.554
  0
LINE
  8
0
 10
139.769
 11
139.611
 20
11.554
 21
11.437
  0
LINE
  8
0
 10
139.611
 11
139.443
 20
11.437
 21
11.336
  0
LINE
  8
0
 10
139.443
 11
139.265
 20
11.336
 21
11.252
  0
LINE
  8
0
 10
139.265
 11
139.081
 20
11.252
 21
11.186
  0
LINE
  8
0
 10
139.081
 11
138.89
 20
11.186
 21
11.138
  0
LINE
  8
0
 10
138.89
 11
138.696
 20
11.138
 21
11.11
  0
LINE
  8
0
 10
138.696
 11
138.5
 20
11.11
 21
11.1
  0
LINE
  8
0
 10
138.5
 11
138.304
 20
11.1
 21
11.11
  0
LINE
  8
0
 10
138.304
 11
138.11
 20
11.11
 21
11.138
  0
LINE
  8
0
 10
138.11
 11
137.919
 20
11.138
 21
11.186
  0
LINE
  8
0
 10
137.919
 11
137.735
 20
11.186
 21
11.252
  0
LINE
  8
0
 10
137.735
 11
137.557
 20
11.252
 21
11.336
  0
LINE
  8
0
 10
137.557
 11
137.389
 20
11.336
 21
11.437
  0
LINE
  8
0
 10
137.389
 11
137.231
 20
11.437
 21
11.554
  0
LINE
  8
0
 10
137.231
 11
137.086
 20
11.554
 21
11.686
  0
LINE
  8
0
 10
137.086
 11
136.954
 20
11.686
 21
11.831
  0
LINE
  8
0
 10
136.954
 11
136.837
 20
11.831
 21
11.989
  0
LINE
  8
0
 10
136.837
 11
136.736
 20
11.989
 21
12.157
  0
LINE
  8
0
 10
136.736
 11
136.652
 20
12.157
 21
12.335
  0
LINE
  8
0
 10
136.652
 11
136.586
 20
12.335
 21
12.519
  0
LINE
  8
0
 10
136.586
 11
136.538
 20
12.519
 21
12.71
  0
LINE
  8
0
 10
136.538
 11
136.51
 20
12.71
 21
12.904
  0
LINE
  8
0
 10
136.51
 11
136.5
 20
12.904
 21
13.1
  0
ENDSEC
  0
SECTION
  2
OBJECTS
  0
DICTIONARY
  0
ENDSEC
  0
EOF
